<svg xmlns="http://www.w3.org/2000/svg" viewBox="0 0 360 220" role="img" aria-label="Interface 08 structural triangle visualization">
  <defs>
    <pattern id="grid-08-mechinterp" x="0" y="0" width="20" height="20" patternUnits="userSpaceOnUse">
      <circle cx="10" cy="10" r="0.8" fill="currentColor" opacity="0.18"/>
    </pattern>
    <style>
      .glyph { stroke: currentColor; fill: none; stroke-width: 1.6; stroke-linecap: round; stroke-linejoin: round; }
      .glyph-fill { fill: currentColor; opacity: 0.8; }
      .glyph-soft { stroke: currentColor; fill: none; stroke-width: 1; opacity: 0.5; stroke-dasharray: 3 3; }
      .tri-rail { stroke-width: 3; }
      .p1-rail { stroke: #6366f1; }
      .p2-rail { stroke: #0d9488; }
      .p3-rail { stroke: #d97706; }
      .tri-label { font-family: Inter, sans-serif; font-size: 9px; font-weight: 700; letter-spacing: 0.08em; text-transform: uppercase; fill: currentColor; opacity: 0.7; }
    </style>
  </defs>
  <rect x="0" y="0" width="360" height="220" fill="url(#grid-08-mechinterp)"/>
  <g transform="translate(180 115)">
    <!-- Sparse-feature decomposition : dense bar -> sparse spikes -->
    <rect class="glyph-fill" x="-110" y="-15" width="60" height="30" opacity="0.5"/>
    <text class="tri-label" x="-105" y="-25" font-size="8">dense</text>
    <path class="glyph" d="M-20 25 L-20 -20 M-5 25 L-5 0 M10 25 L10 -25 M25 25 L25 -10 M40 25 L40 -20 M55 25 L55 -5 M70 25 L70 -22"/>
    <text class="tri-label" x="0" y="-30" font-size="8">sparse SAE</text>
    <path class="glyph" d="M-45 0 L-25 0" marker-end="url(#arr-08)"/>
  </g>
  <line class="tri-rail p1-rail" x1="18" y1="20" x2="60" y2="20"/>
  <text class="tri-label" x="18" y="38">P1</text>
  <line class="tri-rail p2-rail" x1="300" y1="20" x2="342" y2="20"/>
  <text class="tri-label" x="300" y="38">P2</text>
  <line class="tri-rail p3-rail" x1="18" y1="188" x2="60" y2="188"/>
  <text class="tri-label" x="18" y="206">P3</text>
</svg>
